<svg xmlns="http://www.w3.org/2000/svg" viewBox="0 0 128 128">
  <defs>
    <linearGradient id="bg" x1="0" y1="0" x2="1" y2="1">
      <stop offset="0" stop-color="#4f8ff7"/>
      <stop offset="1" stop-color="#9b6ef3"/>
    </linearGradient>
    <linearGradient id="ribbon" x1="0" y1="0" x2="1" y2="0">
      <stop offset="0" stop-color="#f65a5a"/>
      <stop offset="1" stop-color="#e23b3b"/>
    </linearGradient>
  </defs>

  <rect width="128" height="128" rx="28" fill="url(#bg)"/>

  <!-- document -->
  <path d="M34 26h34l16 16v56a4 4 0 0 1-4 4H34a4 4 0 0 1-4-4V30a4 4 0 0 1 4-4Z" fill="#ffffff"/>
  <path d="M68 26v16h16" fill="none" stroke="#c9c2e0" stroke-width="2"/>
  <rect x="30" y="52" width="28" height="13" rx="2.5" fill="url(#ribbon)"/>
  <text x="44" y="61.5" font-family="Arial, Helvetica, sans-serif" font-size="8.5" font-weight="700" fill="#ffffff" text-anchor="middle">PDF</text>
  <path d="M40 75h30M40 83h30M40 91h18" stroke="#d8d3ea" stroke-width="3.5" stroke-linecap="round"/>

  <!-- converts-to-image badge -->
  <rect x="70" y="70" width="34" height="34" rx="8" fill="#ffffff"/>
  <rect x="73" y="73" width="28" height="28" rx="6" fill="#eaf2ff"/>
  <circle cx="82" cy="82" r="4" fill="#ffd23f"/>
  <path d="M74 96l8-9 6 6 6-7 8 10" fill="none" stroke="#5b8def" stroke-width="3" stroke-linecap="round" stroke-linejoin="round"/>
</svg>
